<svg width="100" height="100" viewBox="0 0 100 100" fill="none" xmlns="http://www.w3.org/2000/svg">
  <!-- Background Circle -->
  <circle cx="50" cy="50" r="50" fill="#f97316"/>

  <!-- Chef Hat -->
  <path
    d="M50 25C42 25 36 31 36 39C28 39 22 45 22 53C22 57 24 60.5 27 63V75C27 78 29.5 80 32.5 80H67.5C70.5 80 73 78 73 75V63C76 60.5 78 57 78 53C78 45 72 39 64 39C64 31 58 25 50 25Z"
    fill="white"
  />

  <!-- Hat Brim -->
  <rect x="25" y="75" width="50" height="8" rx="2" fill="white" opacity="0.9"/>

  <!-- Sparkle -->
  <circle cx="70" cy="35" r="3" fill="#fbbf24"/>
  <circle cx="30" cy="40" r="2" fill="#fbbf24"/>
</svg>
